<svg id="Layer_1" data-name="Layer 1" xmlns="http://www.w3.org/2000/svg" viewBox="0 0 32 49.5">
  <g>
    <path d="M1.08,18.49.13,16.58a2.67,2.67,0,0,1,0-.58,15.92,15.92,0,0,1,31.84,0,3.42,3.42,0,0,1-.07.71L16.5,49.33Z" fill="#ff931e"/>
    <path d="M16,.15A15.87,15.87,0,0,1,31.85,16a3.53,3.53,0,0,1-.07.67l-.69,1.49h0l0,0-14.56,31L1.14,18.45.2,16.56A3.43,3.43,0,0,1,.15,16,15.87,15.87,0,0,1,16,.15M16,0A16,16,0,0,0,0,16a3.08,3.08,0,0,0,.06.61l1,1.91,15.49,31L31.2,18.26h0l.71-1.52A3.47,3.47,0,0,0,32,16,16,16,0,0,0,16,0Z"/>
  </g>
  <circle cx="16" cy="15" r="5.5" fill="#fff" stroke="#000" stroke-miterlimit="10" stroke-width="0.15"/>
</svg>
